<?xml version="1.0" encoding="UTF-8" standalone="no"?>
<!-- Created with Inkscape (http://www.inkscape.org/) -->

<svg
   xmlns:dc="http://purl.org/dc/elements/1.1/"
   xmlns:cc="http://creativecommons.org/ns#"
   xmlns:rdf="http://www.w3.org/1999/02/22-rdf-syntax-ns#"
   xmlns:svg="http://www.w3.org/2000/svg"
   xmlns="http://www.w3.org/2000/svg"
   xmlns:sodipodi="http://sodipodi.sourceforge.net/DTD/sodipodi-0.dtd"
   xmlns:inkscape="http://www.inkscape.org/namespaces/inkscape"
   width="248.2475mm"
   height="85.003258mm"
   viewBox="0 0 248.2475 85.003258"
   version="1.1"
   id="svg5156"
   inkscape:version="0.92.0 r15299"
   sodipodi:docname="logo.svg">
  <defs
     id="defs5150" />
  <sodipodi:namedview
     id="base"
     pagecolor="#ffffff"
     bordercolor="#666666"
     borderopacity="1.0"
     inkscape:pageopacity="0.0"
     inkscape:pageshadow="2"
     inkscape:zoom="0.35"
     inkscape:cx="704.93338"
     inkscape:cy="-21.208691"
     inkscape:document-units="mm"
     inkscape:current-layer="layer1"
     showgrid="false"
     fit-margin-top="4"
     fit-margin-left="0"
     fit-margin-right="6"
     fit-margin-bottom="0"
     inkscape:window-width="1366"
     inkscape:window-height="746"
     inkscape:window-x="0"
     inkscape:window-y="22"
     inkscape:window-maximized="0" />
  <metadata
     id="metadata5153">
    <rdf:RDF>
      <cc:Work
         rdf:about="">
        <dc:format>image/svg+xml</dc:format>
        <dc:type
           rdf:resource="http://purl.org/dc/dcmitype/StillImage" />
        <dc:title></dc:title>
      </cc:Work>
    </rdf:RDF>
  </metadata>
  <g
     inkscape:label="Layer 1"
     inkscape:groupmode="layer"
     id="layer1"
     transform="translate(93.153503,-58.218592)">
    <g
       transform="matrix(0.28222223,0,0,0.28222223,-271.34984,-1774.7701)"
       id="g5129">
      <g
         transform="translate(1495.7526,390.3654)"
         id="g5074">
        <g
           style="stroke:#000000"
           id="g5066">
          <rect
             y="6148.0146"
             x="-824.05432"
             height="219.75902"
             width="219.75923"
             id="rect5064"
             style="opacity:1;fill:none;fill-opacity:1;stroke:#000000;stroke-width:20.24096298;stroke-miterlimit:4;stroke-dasharray:none;stroke-dashoffset:0;stroke-opacity:1" />
        </g>
        <path
           id="path5068"
           title="sin(x/2)"
           d="m -642.16828,6151.9694 c -2.54487,0 -5.08976,0.4925 -7.63462,1.4693 -2.54489,0.9767 -5.08977,2.4402 -7.63463,4.3676 -2.54488,1.9274 -5.08974,4.3213 -7.63463,7.1467 -2.54488,2.8255 -5.08974,6.0848 -7.63463,9.7313 -2.54489,3.6463 -5.08977,7.682 -7.63463,12.0498 -2.54488,4.3679 -5.08977,9.0699 -7.63464,14.0402 -2.54488,4.9702 -5.08976,10.2102 -7.63462,15.6473 -2.54489,5.4371 -5.08976,11.0721 -7.63464,16.8276 -2.54488,5.7555 -5.08976,11.632 -7.63463,17.549 -2.54487,5.917 -5.08976,11.8747 -7.63462,17.7917 -2.54489,5.9171 -5.08976,11.7932 -7.63462,17.549 -2.5449,5.7558 -5.08973,11.3902 -7.63461,16.8276 -2.54495,5.4375 -5.08975,10.6766 -7.63456,15.6473 -2.54501,4.9708 -5.08982,9.6716 -7.63477,14.0401 -2.5448,4.3685 -5.08968,8.4029 -7.63456,12.0499 -2.54495,3.6473 -5.08976,6.9051 -7.6347,9.7313 -2.54481,2.8262 -5.08976,5.2184 -7.63456,7.1466 -2.54495,1.9284 -5.08983,3.3901 -7.63471,4.3678 -2.5448,0.9776 -5.08968,1.4686 -7.63456,1.4691"
           style="opacity:1;fill:none;fill-opacity:1;stroke:#000000;stroke-width:18.9303093;stroke-miterlimit:4;stroke-dasharray:none;stroke-dashoffset:0;stroke-opacity:1"
           inkscape:connector-curvature="0" />
        <ellipse
           ry="27.605413"
           rx="29.229256"
           cy="6368.0635"
           cx="-825.11902"
           id="ellipse5070"
           style="opacity:1;fill:#000000;fill-opacity:1;stroke:#ffffff;stroke-width:20;stroke-miterlimit:4;stroke-dasharray:none;stroke-dashoffset:0;stroke-opacity:1" />
        <ellipse
           ry="27.605413"
           rx="29.229256"
           cy="6156.2549"
           cx="-604.98419"
           id="ellipse5072"
           style="opacity:1;fill:#ff0000;fill-opacity:1;stroke:#ffffff;stroke-width:20;stroke-miterlimit:4;stroke-dasharray:none;stroke-dashoffset:0;stroke-opacity:1" />
      </g>
      <text
         xml:space="preserve"
         style="font-style:normal;font-variant:normal;font-weight:bold;font-stretch:normal;font-size:105.78031158px;line-height:89.99999762%;font-family:'Source Sans Pro';-inkscape-font-specification:'Source Sans Pro, Bold';text-align:start;letter-spacing:0px;word-spacing:0px;writing-mode:lr-tb;text-anchor:start;fill:#000000;fill-opacity:1;stroke:none;stroke-width:1px;stroke-linecap:butt;stroke-linejoin:miter;stroke-opacity:1"
         x="932.19849"
         y="6666.2793"
         id="text5084"><tspan
           sodipodi:role="line"
           id="tspan5078"
           x="932.19849"
           y="6666.2793">sinusoidal</tspan><tspan
           style="fill:#999999"
           id="tspan5082"
           sodipodi:role="line"
           x="932.19849"
           y="6761.4814">engineering</tspan></text>
    </g>
  </g>
</svg>
