<?xml version="1.0" encoding="UTF-8" standalone="no"?>
<!-- Created with Inkscape (http://www.inkscape.org/) -->

<svg
   xmlns:dc="http://purl.org/dc/elements/1.1/"
   xmlns:cc="http://creativecommons.org/ns#"
   xmlns:rdf="http://www.w3.org/1999/02/22-rdf-syntax-ns#"
   xmlns:svg="http://www.w3.org/2000/svg"
   xmlns="http://www.w3.org/2000/svg"
   xmlns:sodipodi="http://sodipodi.sourceforge.net/DTD/sodipodi-0.dtd"
   xmlns:inkscape="http://www.inkscape.org/namespaces/inkscape"
   width="84mm"
   height="55mm"
   viewBox="0 0 84 55"
   version="1.1"
   id="svg7641"
   inkscape:version="0.92.1 r15371"
   sodipodi:docname="business-card-moo-bg.svg">
  <defs
     id="defs7635" />
  <sodipodi:namedview
     id="base"
     pagecolor="#ffffff"
     bordercolor="#666666"
     borderopacity="1.0"
     inkscape:pageopacity="0.0"
     inkscape:pageshadow="2"
     inkscape:zoom="1.4"
     inkscape:cx="135.1825"
     inkscape:cy="11.036688"
     inkscape:document-units="mm"
     inkscape:current-layer="layer1"
     showgrid="false"
     inkscape:window-width="1152"
     inkscape:window-height="1054"
     inkscape:window-x="0"
     inkscape:window-y="26"
     inkscape:window-maximized="0" />
  <metadata
     id="metadata7638">
    <rdf:RDF>
      <cc:Work
         rdf:about="">
        <dc:format>image/svg+xml</dc:format>
        <dc:type
           rdf:resource="http://purl.org/dc/dcmitype/StillImage" />
        <dc:title></dc:title>
      </cc:Work>
    </rdf:RDF>
  </metadata>
  <g
     inkscape:groupmode="layer"
     id="layer2"
     inkscape:label="bg"
     transform="translate(0,-4)">
    <rect
       style="fill:#000000;stroke-width:22.17993546;stroke-miterlimit:4;stroke-dasharray:none"
       id="rect8202"
       width="84"
       height="55"
       x="0"
       y="4" />
  </g>
  <g
     inkscape:label="fg"
     inkscape:groupmode="layer"
     id="layer1"
     transform="translate(0,-242)">
    <path
       inkscape:connector-curvature="0"
       id="path5408-6"
       d="m -11.660162,269.50004 c 0.29987,-0.53978 0.599838,-1.07945 0.899814,-1.59261 0.299934,-0.51314 0.599839,-0.9994 0.8998727,-1.43513 0.299939,-0.43573 0.5999068,-0.82055 0.8997708,-1.13582 0.2999749,-0.31525 0.5999795,-0.56052 0.8998827,-0.72416 0.2999694,-0.16365 0.5999111,-0.24513 0.8999481,-0.24097 0.2998993,0.005 0.5999083,0.0945 0.8998139,0.2661 0.2999683,0.17159 0.599908,0.42482 0.8998764,0.74685 0.2999397,0.32201 0.5999079,0.71311 0.8998829,1.15374 0.3000025,0.44061 0.5998092,0.93089 0.8998819,1.44658 0.2999342,0.51566 0.5998102,1.05666 0.8998423,1.59639 0.2999397,0.53973 0.5999081,1.07797 0.8998477,1.5884 0.3000037,0.51043 0.599874,0.99267 0.89988317,1.42335 0.2999682,0.43065 0.59986732,0.80926 0.89987638,1.11758 0.29996828,0.30833 0.59987388,0.54585 0.89987648,0.70137 0.29990547,0.15547 0.59984477,0.22843 0.89981917,0.21572 0.2999338,-0.0127 0.599908,-0.11153 0.8998418,-0.29115 0.2999743,-0.17964 0.5999428,-0.4405 0.8999113,-0.7693 0.2999396,-0.32882 0.5999081,-0.7259 0.8998477,-1.17139 0.2999745,-0.4455 0.5999083,-0.93954 0.8998825,-1.45766 0.2999339,-0.51812 0.599943,-1.06027 0.8998827,-1.59978 0.2999683,-0.53954 0.599908,-1.07621 0.8999114,-1.58382 0.299899,-0.50758 0.5998039,-0.98573 0.8998475,-1.41122 0.2998643,-0.42545 0.599839,-0.79779 0.8998412,-1.09908 0.2999748,-0.3013 0.5998436,-0.53101 0.8998116,-0.67834 0.2999687,-0.14732 0.5999087,-0.2117 0.8998807,-0.19048 0.299969,0.0212 0.599908,0.12851 0.899876,0.31616 0.299939,0.18766 0.599978,0.45604 0.899847,0.79159 0.299907,0.33553 0.599938,0.73849 0.899884,1.18874 0.299968,0.45024 0.599907,0.94791 0.899875,1.46835 0.299939,0.52043 0.599909,1.06362 0.899878,1.60281 0.299975,0.53918 0.599845,1.07419 0.899883,1.5788 0.299939,0.50463 0.599914,0.97854 0.899813,1.39872 0.300038,0.42016 0.599908,0.78613 0.899813,1.08033 0.300072,0.29418 0.599936,0.51604 0.89991,0.65514 0.299976,0.13911 0.59995,0.19493 0.899884,0.1652 0.299933,-0.0297 0.599936,-0.14549 0.899882,-0.34109 0.299863,-0.19564 0.599971,-0.4715 0.899848,-0.81367 0.299962,-0.34217 0.599907,-0.7509 0.899911,-1.20578 0.299933,-0.45489 0.599803,-0.95608 0.899842,-1.4787 0.299905,-0.52264 0.599909,-1.06671 0.899813,-1.60543 0.300003,-0.53871 0.599909,-1.07189 0.899882,-1.57342 0.300003,-0.50152 0.599973,-0.9711 0.899842,-1.38587 0.300039,-0.41477 0.599945,-0.77429 0.89991,-1.0613 0.299941,-0.28698 0.59991,-0.50093 0.899849,-0.63179 0.300039,-0.13087 0.599943,-0.17808 0.899952,-0.13984 0.299858,0.0382 0.599835,0.16239 0.899812,0.3659 0.29993,0.20356 0.599909,0.48683 0.899833,0.83556 0.299972,0.34872 0.599953,0.76312 0.899927,1.22256 0.299884,0.4594 0.599856,0.96395 0.899836,1.48865 0.299976,0.52471 0.599904,1.06951 0.899878,1.60763 0.29998,0.53812 0.599857,1.06931 0.89983,1.56765 0.300027,0.49833 0.599907,0.96341 0.899836,1.37269 0.300027,0.40925 0.599956,0.76224 0.899929,1.04199 0.299929,0.27974 0.599908,0.48574 0.899836,0.6083 0.299974,0.12257 0.599949,0.16119 0.899877,0.11446 0.299933,-0.0467 0.599954,-0.17928 0.899876,-0.39069 0.299981,-0.21138 0.599908,-0.50202 0.899837,-0.85721 0.299973,-0.35517 0.599903,-0.77514 0.899929,-1.23898 0.299882,-0.46384 0.599856,-0.97163 0.899841,-1.49828 0.299969,-0.52663 0.599904,-1.07206 0.899871,-1.60943 0.299929,-0.53738 0.599909,-1.06649 0.899838,-1.56147 0.300026,-0.49499 0.599902,-0.95549 0.899881,-1.35914 0.299975,-0.40366 0.599956,-0.75003 0.899877,-1.02246 0.299881,-0.27242 0.599909,-0.47039 0.899831,-0.58465 0.300032,-0.11424 0.599908,-0.14427 0.899887,-0.0891 0.299923,0.0552 0.599951,0.19614 0.899878,0.41533 0.299927,0.2192 0.599908,0.51714 0.899881,0.87867 0.299923,0.36155 0.599951,0.78699 0.899831,1.25512 0.299974,0.46814 0.599904,0.97909 0.899929,1.50753 0.299928,0.52842 0.599828,1.0743 0.899773,1.61084 0.300008,0.53649 0.59996,1.06339 0.899906,1.5549 0.29995,0.49153 0.599901,0.94734 0.899852,1.34529 0.300004,0.39795 0.599955,0.73759 0.899854,1.00264 0.300003,0.26501 0.59995,0.45492 0.899906,0.56085 0.299951,0.10589 0.599895,0.12727 0.899849,0.0637 0.299944,-0.0637 0.599954,-0.21289 0.899905,-0.43988 0.299893,-0.22698 0.599902,-0.53207 0.899853,-0.89991 0.299946,-0.36783 0.599903,-0.79863 0.899848,-1.27095 0.299955,-0.47233 0.599902,-0.98625 0.899893,-1.51637 0.299947,-0.5301 0.599874,-1.07635 0.899817,-1.61184 0.299998,-0.53549 0.599932,-1.06003 0.899876,-1.54797 0.299993,-0.48793 0.599932,-0.93893 0.899865,-1.33107 0.300004,-0.39215 0.599937,-0.72498 0.899878,-0.98257 0.299996,-0.25756 0.59993,-0.43936 0.899868,-0.5369 0.299942,-0.0975 0.599938,-0.11032 0.899879,-0.0382 0.299926,0.0721 0.599931,0.22965 0.899871,0.4643 0.299934,0.23468 0.599925,0.54691 0.899875,0.92094 0.299936,0.37402 0.59987,0.81007 0.899861,1.28648 0.29995,0.47638 0.59988,0.99316 0.899875,1.52482 0.299947,0.53165 0.599879,1.0781 0.899868,1.61244 0.299944,0.53438 0.599879,1.05642 0.899818,1.54066 0.299996,0.48424 0.599937,0.93029 0.899876,1.31654 0.299933,0.38622 0.599937,0.71219 0.899872,0.96221 0.299997,0.25009 0.599937,0.42372 0.89987,0.51286 0.299939,0.0892 0.59993,0.0933 0.899876,0.0128 0.299933,-0.0806 0.599933,-0.24634 0.899878,-0.48864 0.299928,-0.24232 0.599868,-0.5616 0.899863,-0.94172 0.299947,-0.38012 0.599881,-0.82132 0.899872,-1.30166 0.299933,-0.48031 0.599873,-0.99985 0.899872,-1.53291 0.299938,-0.53308 0.599872,-1.07957 0.899812,-1.61267 0.300003,-0.53309 0.599944,-1.05253 0.899935,-1.53291 0.299934,-0.48042 0.599873,-0.92145 0.899814,-1.30167 0.299997,-0.38024 0.599936,-0.69923 0.899869,-0.9417 0.299935,-0.24248 0.599932,-0.40791 0.899878,-0.48866 0.299939,-0.0807 0.599925,-0.0762 0.899876,0.0127 0.299927,0.089 0.599926,0.26293 0.899866,0.51286 0.299934,0.24988 0.599937,0.57611 0.899871,0.96225 0.299933,0.3861 0.59988,0.83236 0.899871,1.31649 0.299938,0.48419 0.599879,1.00632 0.899875,1.54066 0.299941,0.53435 0.599886,1.08076 0.899826,1.61246 0.299998,0.53167 0.599935,1.04835 0.89987,1.52484 0.299998,0.47646 0.599932,0.91232 0.899876,1.28645 0.299994,0.37415 0.599932,0.68609 0.899867,0.92095 0.300003,0.23483 0.599942,0.39201 0.899876,0.46431 0.29994,0.0724 0.599925,0.0592 0.899877,-0.0382 0.299934,-0.0974 0.59993,-0.2795 0.899855,-0.53692 0.299942,-0.25743 0.599888,-0.59052 0.899878,-0.98256 0.299944,-0.39204 0.59988,-0.8432 0.899878,-1.33107 0.299926,-0.48787 0.599862,-1.01249 0.899869,-1.54796 0.299935,-0.5355 0.59988,-1.08171 0.899805,-1.61184 0.300009,-0.53017 0.599932,-1.04397 0.899878,-1.51639 0.299991,-0.47239 0.599936,-0.90299 0.899865,-1.27096 0.299986,-0.36795 0.599935,-0.67278 0.899861,-0.89988 0.299996,-0.22714 0.599956,-0.37605 0.899856,-0.4399 0.299947,-0.064 0.599937,-0.0422 0.899877,0.0637 0.29994,0.10575 0.59989,0.29597 0.89989,0.56084 0.29995,0.26489 0.59987,0.60481 0.89985,1.00263 0.29994,0.39784 0.59989,0.85383 0.89988,1.34529 0.29995,0.49144 0.59989,1.01843 0.89987,1.55489 0.29994,0.53652 0.59989,1.08238 0.89987,1.61086 0.29994,0.52848 0.59989,1.0393 0.89983,1.50751 0.3,0.46822 0.59993,0.89345 0.89988,1.25513 0.29999,0.36166 0.59992,0.6593 0.89986,0.87867 0.29999,0.21937 0.59993,0.35994 0.89987,0.41535 0.29993,0.0554 0.59994,0.0251 0.89988,-0.0891 0.29993,-0.11408 0.59993,-0.3124 0.89986,-0.58465 0.29994,-0.2723 0.59987,-0.61892 0.89988,-1.02246 0.29993,-0.40354 0.59989,-0.86423 0.89988,-1.35913 0.29993,-0.49495 0.59987,-1.02412 0.89985,-1.56149 0.29995,-0.53734 0.59988,-1.08276 0.89989,-1.60942 0.29992,-0.52669 0.59987,-1.03436 0.8998,-1.49827 0.29999,-0.46394 0.59994,-0.88369 0.89988,-1.23901 0.29999,-0.35529 0.59994,-0.64565 0.89986,-0.85721 0.3,-0.21156 0.59995,-0.34379 0.8999,-0.39067 0.29994,-0.0469 0.59991,-0.008 0.89986,0.11445 0.29993,0.1224 0.59991,0.3287 0.89989,0.6083 0.29992,0.27962 0.59985,0.63284 0.89985,1.04201 0.29996,0.40916 0.59986,0.87442 0.89987,1.37267 0.29993,0.49827 0.59988,1.02954 0.89986,1.56765 0.29996,0.53808 0.59989,1.08287 0.89984,1.60763 0.29999,0.52474 0.59992,1.02918 0.89989,1.48865 0.29996,0.45954 0.59989,0.87372 0.89986,1.22257 0.29995,0.34884 0.59988,0.63183 0.89986,0.83554 0.29997,0.20368 0.5999,0.32753 0.89987,0.36592 0.29997,0.0384 0.59991,-0.009 0.89987,-0.13984 0.29993,-0.13069 0.59993,-0.34495 0.89988,-0.63181 0.29995,-0.28687 0.59991,-0.64663 0.89985,-1.0613 0.29997,-0.41466 0.59992,-0.88439 0.89987,-1.38586 0.29996,-0.50147 0.59992,-1.03471 0.89988,-1.57342 0.29994,-0.5387 0.59991,-1.08275 0.89986,-1.60542 0.29996,-0.52267 0.59991,-1.02372 0.89986,-1.47869 0.29996,-0.45499 0.59992,-0.86349 0.89987,-1.2058 0.29997,-0.34228 0.5999,-0.61789 0.89985,-0.81365 0.29996,-0.19578 0.59993,-0.31121 0.89988,-0.34111 0.29994,-0.0299 0.5999,0.0262 0.89986,0.16521 0.29997,0.13893 0.5999,0.36109 0.89987,0.65514 0.29995,0.29404 0.59992,0.66025 0.89987,1.08033 0.29997,0.42005 0.59991,0.89415 0.89985,1.39871 0.29998,0.50456 0.59994,1.03964 0.89989,1.57879 0.29994,0.53919 0.59992,1.08234 0.89985,1.60282 0.29995,0.5205 0.59991,1.01802 0.89989,1.46836 0.29995,0.45034 0.59988,0.85308 0.89985,1.18874 0.29996,0.33567 0.59992,0.60377 0.89989,0.79158 0.17678,0.11071 0.35361,0.19332 0.53041,0.24689"
       style="opacity:1;fill:none;fill-opacity:1;stroke:#ffffff;stroke-width:1.04235697;stroke-miterlimit:4;stroke-dasharray:none;stroke-dashoffset:0;stroke-opacity:0.95999995" />
  </g>
</svg>
