<?xml version="1.0" encoding="UTF-8" standalone="no"?>
<!-- Created with Inkscape (http://www.inkscape.org/) -->

<svg
   xmlns:dc="http://purl.org/dc/elements/1.1/"
   xmlns:cc="http://creativecommons.org/ns#"
   xmlns:rdf="http://www.w3.org/1999/02/22-rdf-syntax-ns#"
   xmlns:svg="http://www.w3.org/2000/svg"
   xmlns="http://www.w3.org/2000/svg"
   xmlns:sodipodi="http://sodipodi.sourceforge.net/DTD/sodipodi-0.dtd"
   xmlns:inkscape="http://www.inkscape.org/namespaces/inkscape"
   width="226.27541mm"
   height="74.758202mm"
   viewBox="0 0 226.27541 74.758202"
   version="1.1"
   id="svg9592"
   inkscape:version="0.92.1 r15371"
   sodipodi:docname="logo-text-bg444444.svg">
  <defs
     id="defs9586">
    <marker
       inkscape:stockid="Arrow1Lstart"
       orient="auto"
       refY="0"
       refX="0"
       id="Arrow1Lstart"
       style="overflow:visible"
       inkscape:isstock="true">
      <path
         id="path10186"
         d="M 0,0 5,-5 -12.5,0 5,5 Z"
         style="fill:#ECECEC;fill-opacity:1;fill-rule:evenodd;stroke:#ECECEC;stroke-width:1.00000003pt;stroke-opacity:1"
         transform="matrix(0.8,0,0,0.8,10,0)"
         inkscape:connector-curvature="0" />
    </marker>
  </defs>
  <sodipodi:namedview
     id="base"
     pagecolor="#ffffff"
     bordercolor="#666666"
     borderopacity="1.0"
     inkscape:pageopacity="0.0"
     inkscape:pageshadow="2"
     inkscape:zoom="0.49497475"
     inkscape:cx="222.88728"
     inkscape:cy="250.23654"
     inkscape:document-units="mm"
     inkscape:current-layer="layer1"
     showgrid="false"
     showguides="false"
     inkscape:window-width="819"
     inkscape:window-height="746"
     inkscape:window-x="0"
     inkscape:window-y="22"
     inkscape:window-maximized="0"
     fit-margin-top="0"
     fit-margin-left="0"
     fit-margin-right="0"
     fit-margin-bottom="0">
    <inkscape:grid
       type="xygrid"
       id="grid10184"
       originx="4.8424622"
       originy="-227.07247" />
  </sodipodi:namedview>
  <metadata
     id="metadata9589">
    <rdf:RDF>
      <cc:Work
         rdf:about="">
        <dc:format>image/svg+xml</dc:format>
        <dc:type
           rdf:resource="http://purl.org/dc/dcmitype/StillImage" />
        <dc:title />
      </cc:Work>
    </rdf:RDF>
  </metadata>
  <g
     inkscape:label="Layer 1"
     inkscape:groupmode="layer"
     id="layer1"
     transform="translate(4.8424619,4.83067)">
    <g
       aria-label="sinusoidal
engineering"
       style="font-style:normal;font-variant:normal;font-weight:bold;font-stretch:normal;font-size:27.9690609px;line-height:89.99999762%;font-family:'Source Sans Pro';-inkscape-font-specification:'Source Sans Pro, Bold';text-align:start;letter-spacing:0px;word-spacing:0px;writing-mode:lr-tb;text-anchor:start;fill:#ececec;fill-opacity:1;stroke:none;stroke-width:0.26440701px;stroke-linecap:butt;stroke-linejoin:miter;stroke-opacity:1"
       id="text6304">
      <path
         d="m 79.91081,39.189533 c 3.719885,0 5.705689,-1.957834 5.705689,-4.475049 0,-2.545185 -1.985804,-3.524102 -3.747855,-4.16739 -1.426422,-0.531413 -2.712998,-0.867041 -2.712998,-1.762051 0,-0.699227 0.503443,-1.090794 1.566267,-1.090794 0.978917,0 1.929865,0.447505 2.936751,1.174701 l 1.845958,-2.461277 c -1.202669,-0.89501 -2.768937,-1.762051 -4.894585,-1.762051 -3.216442,0 -5.314122,1.762051 -5.314122,4.335204 0,2.293463 1.985804,3.440195 3.663947,4.083483 1.426422,0.559381 2.824875,0.978917 2.824875,1.901896 0,0.727196 -0.531412,1.174701 -1.762051,1.174701 -1.1747,0 -2.321432,-0.503443 -3.580039,-1.454391 l -1.845958,2.573153 c 1.398453,1.146732 3.496132,1.929865 5.314121,1.929865 z"
         style="stroke-width:0.26440701px"
         id="path4501" />
      <path
         d="m 88.227673,38.853905 h 4.111452 V 24.981251 h -4.111452 z m 2.041742,-15.914396 c 1.398453,0 2.37737,-0.89501 2.37737,-2.153618 0,-1.258607 -0.978917,-2.125648 -2.37737,-2.125648 -1.370484,0 -2.377371,0.867041 -2.377371,2.125648 0,1.258608 1.006887,2.153618 2.377371,2.153618 z"
         style="stroke-width:0.26440701px"
         id="path4503" />
      <path
         d="m 95.930091,38.853905 h 4.111449 v -9.369636 c 0.89501,-0.867041 1.5383,-1.342515 2.57316,-1.342515 1.1747,0 1.70611,0.61532 1.70611,2.629092 v 8.083059 h 4.11145 v -8.614471 c 0,-3.468164 -1.28658,-5.593812 -4.30723,-5.593812 -1.87393,0 -3.27238,0.978917 -4.447084,2.097679 h -0.111877 l -0.27969,-1.76205 h -3.356288 z"
         style="stroke-width:0.26440701px"
         id="path4505" />
      <path
         d="m 116.10321,39.189533 c 1.9019,0 3.18847,-0.86704 4.36317,-2.265493 h 0.0839 l 0.30766,1.929865 h 3.35629 V 24.981251 h -4.11145 v 9.173851 c -0.81111,1.090794 -1.42643,1.538299 -2.46128,1.538299 -1.20267,0 -1.73408,-0.643289 -1.73408,-2.629092 v -8.083058 h -4.11145 v 8.61447 c 0,3.468164 1.28657,5.593812 4.30723,5.593812 z"
         style="stroke-width:0.26440701px"
         id="path4507" />
      <path
         d="m 131.91578,39.189533 c 3.71989,0 5.70569,-1.957834 5.70569,-4.475049 0,-2.545185 -1.9858,-3.524102 -3.74785,-4.16739 -1.42642,-0.531413 -2.713,-0.867041 -2.713,-1.762051 0,-0.699227 0.50344,-1.090794 1.56627,-1.090794 0.97891,0 1.92986,0.447505 2.93675,1.174701 l 1.84596,-2.461277 c -1.20267,-0.89501 -2.76894,-1.762051 -4.89459,-1.762051 -3.21644,0 -5.31412,1.762051 -5.31412,4.335204 0,2.293463 1.9858,3.440195 3.66395,4.083483 1.42642,0.559381 2.82487,0.978917 2.82487,1.901896 0,0.727196 -0.53141,1.174701 -1.76205,1.174701 -1.1747,0 -2.32143,-0.503443 -3.58004,-1.454391 l -1.84596,2.573153 c 1.39846,1.146732 3.49614,1.929865 5.31412,1.929865 z"
         style="stroke-width:0.26440701px"
         id="path4509" />
      <path
         d="m 146.19006,39.189533 c 3.49613,0 6.74054,-2.65706 6.74054,-7.271955 0,-4.614895 -3.24441,-7.271956 -6.74054,-7.271956 -3.52411,0 -6.76852,2.657061 -6.76852,7.271956 0,4.614895 3.24441,7.271955 6.76852,7.271955 z m 0,-3.328318 c -1.70612,0 -2.54519,-1.538298 -2.54519,-3.943637 0,-2.40534 0.83907,-3.943638 2.54519,-3.943638 1.67814,0 2.54518,1.538298 2.54518,3.943638 0,2.405339 -0.86704,3.943637 -2.54518,3.943637 z"
         style="stroke-width:0.26440701px"
         id="path4511" />
      <path
         d="m 155.74673,38.853905 h 4.11145 V 24.981251 h -4.11145 z m 2.04174,-15.914396 c 1.39845,0 2.37737,-0.89501 2.37737,-2.153618 0,-1.258607 -0.97892,-2.125648 -2.37737,-2.125648 -1.37048,0 -2.37737,0.867041 -2.37737,2.125648 0,1.258608 1.00689,2.153618 2.37737,2.153618 z"
         style="stroke-width:0.26440701px"
         id="path4513" />
      <path
         d="m 168.39968,39.189533 c 1.34251,0 2.713,-0.727195 3.69191,-1.706112 h 0.11188 l 0.27969,1.370484 h 3.35629 V 19.247593 H 171.728 v 4.726771 l 0.16781,2.125649 c -0.95095,-0.89501 -1.87393,-1.454391 -3.41223,-1.454391 -2.93675,0 -5.76162,2.740968 -5.76162,7.271956 0,4.530987 2.23752,7.271955 5.67772,7.271955 z m 1.06282,-3.356287 c -1.59423,0 -2.51721,-1.230639 -2.51721,-3.971607 0,-2.629091 1.1747,-3.85973 2.48924,-3.85973 0.75517,0 1.56627,0.223753 2.29347,0.89501 v 5.677719 c -0.67126,0.922979 -1.37049,1.258608 -2.2655,1.258608 z"
         style="stroke-width:0.26440701px"
         id="path4515" />
      <path
         d="m 182.95102,39.189533 c 1.56626,0 2.85284,-0.727195 4.02754,-1.76205 h 0.11188 l 0.27969,1.426422 h 3.35628 v -7.943214 c 0,-4.251297 -1.95783,-6.265069 -5.5099,-6.265069 -2.18159,0 -4.16739,0.755164 -5.92944,1.817989 l 1.48236,2.712999 c 1.34251,-0.783134 2.48925,-1.258608 3.66395,-1.258608 1.51033,0 2.09768,0.783134 2.18158,2.013772 -5.48193,0.559382 -7.80337,2.153618 -7.80337,5.0624 0,2.349401 1.59424,4.195359 4.13943,4.195359 z m 1.39845,-3.188472 c -0.97892,0 -1.59424,-0.419536 -1.59424,-1.314546 0,-1.062825 0.95095,-1.901896 3.85973,-2.293463 v 2.433308 c -0.72719,0.727196 -1.34251,1.174701 -2.26549,1.174701 z"
         style="stroke-width:0.26440701px"
         id="path4517" />
      <path
         d="m 197.98001,39.189533 c 0.92298,0 1.62221,-0.139845 2.06971,-0.335628 l -0.50344,-3.048628 c -0.22375,0.05594 -0.33563,0.05594 -0.50344,0.05594 -0.33563,0 -0.7272,-0.27969 -0.7272,-1.146731 V 19.247593 h -4.11145 v 15.299076 c 0,2.796906 0.95095,4.642864 3.77582,4.642864 z"
         style="stroke-width:0.26440701px"
         id="path4519" />
      <path
         d="m 82.036459,64.361688 c 1.650174,0 3.496132,-0.587351 4.922555,-1.566268 L 85.58853,60.306174 c -1.006887,0.615319 -1.957835,0.922979 -2.99269,0.922979 -1.845958,0 -3.244411,-0.922979 -3.608009,-2.936752 h 8.306811 c 0.08391,-0.335628 0.167815,-1.090793 0.167815,-1.817989 0,-3.775823 -1.957835,-6.656636 -5.901472,-6.656636 -3.328318,0 -6.54476,2.768937 -6.54476,7.271956 0,4.586926 3.048627,7.271956 7.020234,7.271956 z m -3.076597,-8.782286 c 0.279691,-1.76205 1.398453,-2.629091 2.68503,-2.629091 1.650175,0 2.321432,1.090793 2.321432,2.629091 z"
         style="fill:#ececec;fill-opacity:0.5;stroke-width:0.26440701px"
         id="path4521" />
      <path
         d="m 90.303502,64.026059 h 4.111452 v -9.369636 c 0.89501,-0.86704 1.538298,-1.342514 2.573153,-1.342514 1.174701,0 1.706113,0.615319 1.706113,2.629091 v 8.083059 h 4.11145 v -8.614471 c 0,-3.468163 -1.28657,-5.593812 -4.307233,-5.593812 -1.873928,0 -3.272381,0.978917 -4.447081,2.097679 H 93.93948 l -0.279691,-1.76205 h -3.356287 z"
         style="fill:#ececec;fill-opacity:0.5;stroke-width:0.26440701px"
         id="path4523" />
      <path
         d="m 111.25976,69.927531 c 4.75474,0 7.74743,-2.09768 7.74743,-4.978493 0,-2.489247 -1.87393,-3.524102 -5.28615,-3.524102 h -2.23753 c -1.5383,0 -2.09768,-0.335629 -2.09768,-1.034855 0,-0.475474 0.13985,-0.727196 0.50344,-1.034855 0.61532,0.195783 1.1747,0.27969 1.67815,0.27969 3.04863,0 5.45396,-1.48236 5.45396,-4.670833 0,-0.727195 -0.19578,-1.398453 -0.4475,-1.817989 h 2.20956 v -2.992689 h -5.0624 c -0.61532,-0.223753 -1.37049,-0.335629 -2.15362,-0.335629 -2.99269,0 -5.73366,1.678144 -5.73366,5.006462 0,1.622205 0.89501,2.936751 1.87393,3.608009 v 0.111876 c -0.89501,0.615319 -1.56627,1.594236 -1.56627,2.601123 0,1.146731 0.55938,1.873927 1.28658,2.349401 v 0.111876 c -1.28658,0.727196 -1.98581,1.650175 -1.98581,2.796906 0,2.461277 2.57316,3.524102 5.81757,3.524102 z m 0.30766,-12.781861 c -1.0908,0 -1.9019,-0.783134 -1.9019,-2.321432 0,-1.48236 0.8111,-2.237525 1.9019,-2.237525 1.09079,0 1.90189,0.783134 1.90189,2.237525 0,1.538298 -0.8111,2.321432 -1.90189,2.321432 z m 0.33563,10.208707 c -1.84596,0 -3.0766,-0.559381 -3.0766,-1.594236 0,-0.503443 0.25172,-0.922979 0.75516,-1.370484 0.44751,0.111876 1.00689,0.167814 1.95784,0.167814 h 1.42642 c 1.37048,0 2.12565,0.223753 2.12565,1.090793 0,0.950948 -1.34252,1.706113 -3.18847,1.706113 z"
         style="fill:#ececec;fill-opacity:0.5;stroke-width:0.26440701px"
         id="path4525" />
      <path
         d="m 121.22242,64.026059 h 4.11146 V 50.153405 h -4.11146 z m 2.04174,-15.914396 c 1.39846,0 2.37737,-0.89501 2.37737,-2.153617 0,-1.258608 -0.97891,-2.125649 -2.37737,-2.125649 -1.37048,0 -2.37737,0.867041 -2.37737,2.125649 0,1.258607 1.00689,2.153617 2.37737,2.153617 z"
         style="fill:#ececec;fill-opacity:0.5;stroke-width:0.26440701px"
         id="path4527" />
      <path
         d="m 128.92484,64.026059 h 4.11145 v -9.369636 c 0.89501,-0.86704 1.5383,-1.342514 2.57316,-1.342514 1.1747,0 1.70611,0.615319 1.70611,2.629091 v 8.083059 h 4.11145 v -8.614471 c 0,-3.468163 -1.28657,-5.593812 -4.30723,-5.593812 -1.87393,0 -3.27238,0.978917 -4.44708,2.097679 h -0.11188 l -0.27969,-1.76205 h -3.35629 z"
         style="fill:#ececec;fill-opacity:0.5;stroke-width:0.26440701px"
         id="path4529" />
      <path
         d="m 151.13971,64.361688 c 1.65017,0 3.49613,-0.587351 4.92255,-1.566268 l -1.37048,-2.489246 c -1.00689,0.615319 -1.95784,0.922979 -2.99269,0.922979 -1.84596,0 -3.24441,-0.922979 -3.60801,-2.936752 h 8.30681 c 0.0839,-0.335628 0.16782,-1.090793 0.16782,-1.817989 0,-3.775823 -1.95784,-6.656636 -5.90148,-6.656636 -3.32831,0 -6.54476,2.768937 -6.54476,7.271956 0,4.586926 3.04863,7.271956 7.02024,7.271956 z m -3.0766,-8.782286 c 0.27969,-1.76205 1.39845,-2.629091 2.68503,-2.629091 1.65018,0 2.32143,1.090793 2.32143,2.629091 z"
         style="fill:#ececec;fill-opacity:0.5;stroke-width:0.26440701px"
         id="path4531" />
      <path
         d="m 165.61588,64.361688 c 1.65018,0 3.49613,-0.587351 4.92256,-1.566268 l -1.37049,-2.489246 c -1.00688,0.615319 -1.95783,0.922979 -2.99269,0.922979 -1.84596,0 -3.24441,-0.922979 -3.60801,-2.936752 h 8.30681 c 0.0839,-0.335628 0.16782,-1.090793 0.16782,-1.817989 0,-3.775823 -1.95784,-6.656636 -5.90147,-6.656636 -3.32832,0 -6.54476,2.768937 -6.54476,7.271956 0,4.586926 3.04862,7.271956 7.02023,7.271956 z m -3.0766,-8.782286 c 0.27969,-1.76205 1.39846,-2.629091 2.68503,-2.629091 1.65018,0 2.32144,1.090793 2.32144,2.629091 z"
         style="fill:#ececec;fill-opacity:0.5;stroke-width:0.26440701px"
         id="path4533" />
      <path
         d="m 173.88292,64.026059 h 4.11145 v -8.05509 c 0.7272,-1.873927 2.01378,-2.545184 3.04863,-2.545184 0.58735,0 1.00689,0.08391 1.51033,0.223752 l 0.67126,-3.55207 c -0.39157,-0.167815 -0.86704,-0.279691 -1.65018,-0.279691 -1.42642,0 -2.93675,0.89501 -3.94363,2.768937 h -0.11188 l -0.27969,-2.433308 h -3.35629 z"
         style="fill:#ececec;fill-opacity:0.5;stroke-width:0.26440701px"
         id="path4535" />
      <path
         d="m 185.02684,64.026059 h 4.11146 V 50.153405 h -4.11146 z m 2.04175,-15.914396 c 1.39845,0 2.37737,-0.89501 2.37737,-2.153617 0,-1.258608 -0.97892,-2.125649 -2.37737,-2.125649 -1.37049,0 -2.37738,0.867041 -2.37738,2.125649 0,1.258607 1.00689,2.153617 2.37738,2.153617 z"
         style="fill:#ececec;fill-opacity:0.5;stroke-width:0.26440701px"
         id="path4537" />
      <path
         d="m 192.72926,64.026059 h 4.11145 v -9.369636 c 0.89501,-0.86704 1.5383,-1.342514 2.57315,-1.342514 1.17471,0 1.70612,0.615319 1.70612,2.629091 v 8.083059 h 4.11145 v -8.614471 c 0,-3.468163 -1.28658,-5.593812 -4.30724,-5.593812 -1.87392,0 -3.27238,0.978917 -4.44708,2.097679 h -0.11187 l -0.27969,-1.76205 h -3.35629 z"
         style="fill:#ececec;fill-opacity:0.5;stroke-width:0.26440701px"
         id="path4539" />
      <path
         d="m 213.68552,69.927531 c 4.75474,0 7.74743,-2.09768 7.74743,-4.978493 0,-2.489247 -1.87393,-3.524102 -5.28615,-3.524102 h -2.23753 c -1.5383,0 -2.09768,-0.335629 -2.09768,-1.034855 0,-0.475474 0.13985,-0.727196 0.50345,-1.034855 0.61532,0.195783 1.1747,0.27969 1.67814,0.27969 3.04863,0 5.45397,-1.48236 5.45397,-4.670833 0,-0.727195 -0.19579,-1.398453 -0.44751,-1.817989 h 2.20956 v -2.992689 h -5.0624 c -0.61532,-0.223753 -1.37049,-0.335629 -2.15362,-0.335629 -2.99269,0 -5.73366,1.678144 -5.73366,5.006462 0,1.622205 0.89501,2.936751 1.87393,3.608009 v 0.111876 c -0.89501,0.615319 -1.56627,1.594236 -1.56627,2.601123 0,1.146731 0.55938,1.873927 1.28658,2.349401 v 0.111876 c -1.28658,0.727196 -1.9858,1.650175 -1.9858,2.796906 0,2.461277 2.57315,3.524102 5.81756,3.524102 z m 0.30766,-12.781861 c -1.09079,0 -1.9019,-0.783134 -1.9019,-2.321432 0,-1.48236 0.81111,-2.237525 1.9019,-2.237525 1.09079,0 1.9019,0.783134 1.9019,2.237525 0,1.538298 -0.81111,2.321432 -1.9019,2.321432 z m 0.33563,10.208707 c -1.84596,0 -3.0766,-0.559381 -3.0766,-1.594236 0,-0.503443 0.25172,-0.922979 0.75517,-1.370484 0.4475,0.111876 1.00688,0.167814 1.95783,0.167814 h 1.42642 c 1.37049,0 2.12565,0.223753 2.12565,1.090793 0,0.950948 -1.34251,1.706113 -3.18847,1.706113 z"
         style="fill:#ececec;fill-opacity:0.5;stroke-width:0.26440701px"
         id="path4541" />
    </g>
    <g
       id="g10518">
      <g
         transform="translate(2.9886077,2.3730299)"
         style="stroke-width:6;stroke-miterlimit:4;stroke-dasharray:none"
         id="g10505">
        <g
           transform="matrix(0.28222223,0,0,0.28222223,237.85811,-1729.1481)"
           style="stroke:#ECECEC;stroke-width:21.25984192;stroke-miterlimit:4;stroke-dasharray:none;stroke-opacity:1"
           id="g6292">
          <rect
             y="6129.2646"
             x="-842.80432"
             height="206.24994"
             width="206.25005"
             id="rect6290"
             style="opacity:1;fill:none;fill-opacity:1;stroke:#ECECEC;stroke-width:21.25984192;stroke-miterlimit:4;stroke-dasharray:none;stroke-dashoffset:0;stroke-opacity:1" />
        </g>
        <path
           id="path6294"
           title="sin(x/2)"
           d="m 55.5625,0.66666667 c -0.928371,0 -1.856705,0.13319437 -2.785079,0.39715343 -0.928371,0.2636873 -1.856744,0.6592201 -2.785077,1.1798418 -0.928372,0.5208916 -1.856743,1.1674139 -2.785116,1.9309205 -0.928334,0.7632369 -1.856705,1.6439988 -2.785078,2.6290465 -0.928372,0.9850477 -1.856743,2.0754629 -2.785077,3.2555751 -0.928372,1.180112 -1.856744,2.450461 -2.785115,3.793218 -0.928336,1.342755 -1.856706,2.758458 -2.785077,4.227385 -0.928374,1.469197 -1.856708,2.991617 -2.785079,4.546459 -0.928372,1.555111 -1.856744,3.142642 -2.785115,4.741252 -0.928334,1.598609 -1.856707,3.208295 -2.785078,4.806905 -0.928371,1.598608 -1.856705,3.18614 -2.785079,4.741251 -0.928371,1.555112 -1.856705,3.077263 -2.785077,4.546188 -0.928408,1.469197 -1.856743,2.88463 -2.785079,4.227655 -0.928407,1.342757 -1.856742,2.612837 -2.785115,3.793218 -0.928334,1.180113 -1.856705,2.270258 -2.785077,3.255575 -0.928372,0.985319 -1.856742,1.86554 -2.785113,2.629047 -0.928337,0.763506 -1.8567441,1.409758 -2.785079,1.93092 C 7.2876175,57.819171 6.3592466,58.214164 5.4308755,58.478121 4.5025393,58.742347 3.5742044,58.875 2.6458333,58.875"
           style="opacity:1;fill:none;fill-opacity:1;stroke:#ECECEC;stroke-width:6;stroke-miterlimit:4;stroke-dasharray:none;stroke-dashoffset:0;stroke-opacity:1"
           inkscape:connector-curvature="0" />
      </g>
      <ellipse
         ry="5.9999995"
         rx="6"
         style="opacity:1;fill:#ECECEC;fill-opacity:1;stroke:#444444;stroke-width:3.70000005;stroke-miterlimit:4;stroke-dasharray:none;stroke-dashoffset:0;stroke-opacity:1"
         id="ellipse6298"
         cx="3.0075381"
         cy="61.284782" />
      <ellipse
         cy="3.0193295"
         cx="61.201427"
         id="ellipse10510"
         style="opacity:1;fill:#f0544c;fill-opacity:1;stroke:#444444;stroke-width:3.70000005;stroke-miterlimit:4;stroke-dasharray:none;stroke-dashoffset:0;stroke-opacity:1"
         rx="6"
         ry="5.9999995" />
    </g>
  </g>
</svg>
