<?xml version="1.0" encoding="UTF-8" standalone="no"?>
<!-- Created with Inkscape (http://www.inkscape.org/) -->

<svg
   xmlns:dc="http://purl.org/dc/elements/1.1/"
   xmlns:cc="http://creativecommons.org/ns#"
   xmlns:rdf="http://www.w3.org/1999/02/22-rdf-syntax-ns#"
   xmlns:svg="http://www.w3.org/2000/svg"
   xmlns="http://www.w3.org/2000/svg"
   xmlns:sodipodi="http://sodipodi.sourceforge.net/DTD/sodipodi-0.dtd"
   xmlns:inkscape="http://www.inkscape.org/namespaces/inkscape"
   width="105.83333mm"
   height="64.208336mm"
   viewBox="0 0 105.83333 64.208336"
   version="1.1"
   id="svg10553"
   inkscape:version="0.92.0 r15299"
   sodipodi:docname="logo-sin.svg">
  <defs
     id="defs10547" />
  <sodipodi:namedview
     id="base"
     pagecolor="#ffffff"
     bordercolor="#666666"
     borderopacity="1.0"
     inkscape:pageopacity="0.0"
     inkscape:pageshadow="2"
     inkscape:zoom="0.98994949"
     inkscape:cx="297.66527"
     inkscape:cy="-19.747484"
     inkscape:document-units="mm"
     inkscape:current-layer="layer1"
     showgrid="false"
     fit-margin-top="0"
     fit-margin-left="0"
     fit-margin-right="0"
     fit-margin-bottom="0"
     inkscape:window-width="1366"
     inkscape:window-height="746"
     inkscape:window-x="0"
     inkscape:window-y="22"
     inkscape:window-maximized="0" />
  <metadata
     id="metadata10550">
    <rdf:RDF>
      <cc:Work
         rdf:about="">
        <dc:format>image/svg+xml</dc:format>
        <dc:type
           rdf:resource="http://purl.org/dc/dcmitype/StillImage" />
        <dc:title></dc:title>
      </cc:Work>
    </rdf:RDF>
  </metadata>
  <g
     inkscape:label="Layer 1"
     inkscape:groupmode="layer"
     id="layer1"
     transform="translate(-32.494249,-26.006687)">
    <g
       id="g11182">
      <path
         id="path11178"
         style="opacity:1;fill:none;fill-opacity:1;stroke:#ffffff;stroke-width:6;stroke-miterlimit:4;stroke-dasharray:none;stroke-dashoffset:0;stroke-opacity:1"
         d="m 85.410916,29.006687 c 0.928371,0 1.856705,0.133194 2.785079,0.397153 0.928371,0.263687 1.856744,0.65922 2.785077,1.179842 0.928372,0.520891 1.856743,1.167414 2.785116,1.93092 0.928334,0.763237 1.856705,1.643999 2.785078,2.629047 0.928372,0.985048 1.856743,2.075463 2.785077,3.255575 0.928367,1.180112 1.856747,2.450461 2.785117,3.793218 0.92833,1.342755 1.8567,2.758458 2.78507,4.227385 0.92838,1.469197 1.85671,2.991617 2.78508,4.546459 0.92838,1.555111 1.85675,3.142642 2.78512,4.741252 0.92833,1.598609 1.85671,3.208295 2.78508,4.806905 0.92837,1.598608 1.8567,3.18614 2.78508,4.741251 0.92837,1.555112 1.8567,3.077263 2.78507,4.546188 0.92841,1.469197 1.85675,2.88463 2.78508,4.227655 0.92841,1.342757 1.85674,2.612837 2.78512,3.793218 0.92833,1.180113 1.8567,2.270258 2.78507,3.255575 0.92838,0.985319 1.85675,1.86554 2.78512,2.629047 0.92833,0.763506 1.85674,1.409758 2.78508,1.93092 0.92837,0.520894 1.85674,0.915887 2.78511,1.179844 0.92834,0.264226 1.85667,0.396879 2.78504,0.396879 M 85.410916,29.006687 c -0.928371,0 -1.856705,0.133194 -2.785079,0.397153 -0.928371,0.263687 -1.856744,0.65922 -2.785077,1.179842 -0.928372,0.520891 -1.856743,1.167414 -2.785116,1.93092 -0.928334,0.763237 -1.856705,1.643999 -2.785078,2.629047 -0.928372,0.985048 -1.856743,2.075463 -2.785077,3.255575 -0.928372,1.180112 -1.856744,2.450461 -2.785115,3.793218 -0.928336,1.342755 -1.856706,2.758458 -2.785077,4.227385 -0.928374,1.469197 -1.856708,2.991617 -2.785079,4.546459 -0.928372,1.555111 -1.856744,3.142642 -2.785115,4.741252 -0.928334,1.598609 -1.856707,3.208295 -2.785078,4.806905 -0.928371,1.598608 -1.856705,3.18614 -2.785079,4.741251 -0.928371,1.555112 -1.856705,3.077263 -2.785077,4.546188 -0.928408,1.469197 -1.856743,2.88463 -2.785079,4.227655 -0.928407,1.342757 -1.856742,2.612837 -2.785115,3.793218 -0.928334,1.180113 -1.856705,2.270258 -2.785077,3.255575 -0.928372,0.985319 -1.856742,1.86554 -2.785113,2.629047 -0.928337,0.763506 -1.856744,1.409758 -2.785079,1.93092 -0.928373,0.520894 -1.856743,0.915887 -2.785115,1.179844 -0.928336,0.264226 -1.856671,0.396879 -2.785042,0.396879"
         inkscape:connector-curvature="0" />
    </g>
  </g>
</svg>
